<svg width="16" height="16" viewBox="0 0 16 16" fill="none" xmlns="http://www.w3.org/2000/svg">
<path d="M15 8L15.3536 8.35355C15.5488 8.15829 15.5488 7.84171 15.3536 7.64645L15 8ZM9.64645 12.6464L9.29289 13L10 13.7071L10.3536 13.3536L9.64645 12.6464ZM10.3536 2.64645L10 2.29289L9.29289 3L9.64645 3.35355L10.3536 2.64645ZM1 8.5H15V7.5H1V8.5ZM10.3536 13.3536L15.3536 8.35355L14.6464 7.64645L9.64645 12.6464L10.3536 13.3536ZM15.3536 7.64645L10.3536 2.64645L9.64645 3.35355L14.6464 8.35355L15.3536 7.64645Z" fill="#000"/>
</svg>
