<svg width="24" height="24" viewBox="0 0 24 24" fill="none" xmlns="http://www.w3.org/2000/svg">
<path fill-rule="evenodd" clip-rule="evenodd" d="M18.5 10.75C18.5 15.0302 15.0302 18.5 10.75 18.5C6.46979 18.5 3 15.0302 3 10.75C3 6.46979 6.46979 3 10.75 3C15.0302 3 18.5 6.46979 18.5 10.75ZM16.5736 17.2807C15.0267 18.661 12.9863 19.5 10.75 19.5C5.91751 19.5 2 15.5825 2 10.75C2 5.91751 5.91751 2 10.75 2C15.5825 2 19.5 5.91751 19.5 10.75C19.5 12.9863 18.661 15.0267 17.2807 16.5736L21.7286 21.0214C21.9238 21.2167 21.9238 21.5333 21.7286 21.7286C21.5333 21.9238 21.2167 21.9238 21.0214 21.7286L16.5736 17.2807Z" fill="#505050"/>
</svg>
