<svg width="16" height="16" viewBox="0 0 16 16" fill="none" xmlns="http://www.w3.org/2000/svg">
<path d="M16 7.99908C15.9998 6.47028 15.5616 4.97354 14.7372 3.68606C13.9128 2.39858 12.7368 1.37427 11.3483 0.734412C9.95985 0.0945501 8.41713 -0.134074 6.90277 0.0756062C5.38842 0.285286 3.96585 0.92449 2.8035 1.91754C1.64114 2.9106 0.787659 4.21591 0.344106 5.67895C-0.0994477 7.142 -0.114502 8.7015 0.300725 10.1728C0.715953 11.6442 1.54407 12.9657 2.68704 13.981C3.83002 14.9963 5.23998 15.6629 6.75 15.9017V10.3117H4.71867V7.99908H6.75V6.23641C6.75 4.23175 7.94467 3.12374 9.77133 3.12374C10.3714 3.13235 10.9701 3.18449 11.5627 3.27974V5.24908H10.5533C10.2495 5.20875 9.94208 5.29073 9.69867 5.477C9.45526 5.66328 9.2958 5.93859 9.25533 6.24241C9.2439 6.32749 9.24211 6.41359 9.25 6.49908V7.99908H11.4667L11.112 10.3117H9.24533V15.9017C11.128 15.6051 12.8429 14.646 14.0813 13.1971C15.3196 11.7483 16 9.905 16 7.99908Z" fill="#505050"/>
</svg>
