<svg width="273" height="40" viewBox="0 0 273 40" fill="none" xmlns="http://www.w3.org/2000/svg">
<g clip-path="url(#clip0)">
<path d="M3.99982 4.00317L18.9215 36.0028" stroke="#69B569" stroke-width="8" stroke-linecap="round"/>
<path d="M23.6661 4.00391L38.5878 36.0035" stroke="#FFB901" stroke-width="8" stroke-linecap="round"/>
<path d="M54.0138 4.00385L47 19.0449" stroke="#5074F6" stroke-width="8" stroke-linecap="round"/>
<path d="M75.5741 40C80.8635 40 84.9924 37.8677 86.8545 34.1431C87.0973 33.5762 87.2592 33.0364 87.2592 32.5776C87.2592 31.1201 86.2338 30.2024 84.8305 30.2024C83.9939 30.2024 83.4002 30.4993 82.7795 31.2281C80.6206 34.17 78.6236 35.2767 75.4392 35.2767C70.7976 35.2767 67.883 32.0378 67.883 26.8556V26.7206H85.0464C86.8545 26.7206 87.9339 25.641 87.9339 23.7517C87.9339 16.0054 82.7255 10.5533 75.1694 10.5533C67.1274 10.5533 62 16.3833 62 25.3981C62 34.5749 67.0195 40 75.5741 40ZM67.91 22.6451C68.2069 18.2186 71.1214 15.2497 75.1424 15.2497C79.1903 15.2497 81.9699 18.1916 82.1049 22.6451H67.91Z" fill="#333333"/>
<path d="M96.5685 39.973C98.2686 39.973 99.456 38.8934 99.456 37.058V34.6289H99.564C101.318 37.9217 104.556 39.946 108.685 39.946C115.918 39.946 120.559 34.278 120.559 25.2632C120.559 16.2753 115.891 10.6073 108.739 10.6073C104.718 10.6073 101.453 12.6046 99.7529 15.8974H99.6179V3.07692C99.6179 1.16059 98.4035 0 96.7034 0C95.0033 0 93.7889 1.16059 93.7889 3.07692V37.058C93.7889 38.8934 94.8953 39.973 96.5685 39.973ZM107.12 35.0067C102.721 35.0067 99.5909 31.1741 99.5909 25.2632C99.5909 19.4062 102.721 15.5196 107.12 15.5196C111.708 15.5196 114.568 19.2982 114.568 25.2632C114.568 31.2821 111.735 35.0067 107.12 35.0067Z" fill="#333333"/>
<path d="M129.329 39.973C131.029 39.973 132.243 38.8124 132.243 36.8961V23.0499C132.243 18.5695 134.888 15.6005 139.206 15.6005C143.308 15.6005 145.413 18.1107 145.413 22.2942V36.8961C145.413 38.8124 146.627 39.973 148.327 39.973C150.054 39.973 151.269 38.8124 151.269 36.8961V21.1606C151.269 14.7368 147.545 10.5803 141.311 10.5803C136.993 10.5803 133.89 12.4966 132.324 15.8165H132.189V3.02294C132.189 1.18758 131.11 0 129.302 0C127.521 0 126.414 1.18758 126.414 3.02294V36.8961C126.414 38.8124 127.629 39.973 129.329 39.973Z" fill="#333333"/>
<path d="M170.212 40C178.335 40 183.678 34.413 183.678 25.2632C183.678 16.1404 178.308 10.5533 170.212 10.5533C162.116 10.5533 156.746 16.1404 156.746 25.2632C156.746 34.413 162.089 40 170.212 40ZM170.212 35.1957C165.651 35.1957 162.683 31.5789 162.683 25.2632C162.683 18.9744 165.651 15.3576 170.212 15.3576C174.773 15.3576 177.741 18.9744 177.741 25.2632C177.741 31.5789 174.8 35.1957 170.212 35.1957Z" fill="#333333"/>
<path d="M199.113 39.973C203.458 39.973 206.346 38.0567 207.911 34.6559H208.046V37.031C208.046 38.8124 209.179 39.973 210.853 39.973C212.526 39.973 213.632 38.8124 213.632 37.0041V13.6572C213.632 11.7139 212.445 10.5533 210.718 10.5533C209.017 10.5533 207.803 11.7139 207.803 13.6572V27.6113C207.803 32.0378 205.266 34.9528 201.056 34.9528C197.036 34.9528 194.985 32.6316 194.985 28.3131V13.6572C194.985 11.7139 193.77 10.5533 192.07 10.5533C190.343 10.5533 189.155 11.7139 189.155 13.6572V29.4467C189.155 35.9514 192.934 39.973 199.113 39.973Z" fill="#333333"/>
<path d="M230.983 40C238 40 242.722 36.4912 242.722 31.2281C242.722 27.0175 240.429 24.8853 234.465 23.5088L230.066 22.4831C227.07 21.7814 225.694 20.5398 225.694 18.7584C225.694 16.5452 227.853 15.0067 230.983 15.0067C233.844 15.0067 235.571 16.1404 236.839 18.2996C237.406 19.2173 238.243 19.5412 239.187 19.5412C240.644 19.5412 241.454 18.6775 241.454 17.3819C241.454 17.112 241.4 16.8421 241.346 16.5182C240.536 13.1714 236.327 10.5533 231.199 10.5533C224.453 10.5533 220 13.9541 220 19.0823C220 23.1309 222.698 25.83 228.204 27.1255L232.683 28.1781C235.733 28.9069 236.839 29.9055 236.839 31.7679C236.839 34.1161 234.599 35.5466 231.28 35.5466C227.907 35.5466 226.207 34.5209 224.749 32.2267C224.021 31.1471 223.184 30.6883 222.213 30.6883C220.755 30.6883 219.703 31.552 219.703 33.0094C219.703 33.3873 219.757 33.7922 219.946 34.224C221.295 37.7058 225.397 40 230.983 40Z" fill="#333333"/>
<path d="M260.64 40C265.93 40 270.058 37.8677 271.921 34.1431C272.163 33.5762 272.325 33.0364 272.325 32.5776C272.325 31.1201 271.3 30.2024 269.897 30.2024C269.06 30.2024 268.466 30.4993 267.846 31.2281C265.687 34.17 263.69 35.2767 260.505 35.2767C255.864 35.2767 252.949 32.0378 252.949 26.8556V26.7206H270.112C271.921 26.7206 273 25.641 273 23.7517C273 16.0054 267.792 10.5533 260.235 10.5533C252.193 10.5533 247.066 16.3833 247.066 25.3981C247.066 34.5749 252.086 40 260.64 40ZM252.976 22.6451C253.273 18.2186 256.187 15.2497 260.208 15.2497C264.256 15.2497 267.036 18.1916 267.171 22.6451H252.976Z" fill="#333333"/>
</g>
<defs>
<clipPath id="clip0">
<rect width="273" height="40" fill="white"/>
</clipPath>
</defs>
</svg>
